<?xml version="1.0" encoding="utf-8"?>
<!-- Generator: Adobe Illustrator 25.0.1, SVG Export Plug-In . SVG Version: 6.00 Build 0)  -->
<svg version="1.1" id="Layer_1" xmlns="http://www.w3.org/2000/svg" xmlns:xlink="http://www.w3.org/1999/xlink" x="0px" y="0px"
	 viewBox="0 0 500 500" style="enable-background:new 0 0 500 500;" xml:space="preserve">
<style type="text/css">
	.st0{fill:url(#SVGID_1_);}
	.st1{fill:#DC322E;}
	.st2{fill:#FFFFFF;}
	.st3{fill:#FDE6E6;}
</style>
<linearGradient id="SVGID_1_" gradientUnits="userSpaceOnUse" x1="-10.6163" y1="102.6099" x2="510.1184" y2="403.2562" gradientTransform="matrix(1 0 0 -1 0 502)">
	<stop  offset="0" style="stop-color:#ED6B30"/>
	<stop  offset="1" style="stop-color:#EA4742"/>
</linearGradient>
<path class="st0" d="M390.62,498.13H108.88c-59.75,0-108.2-48.44-108.2-108.2V108.2C0.68,48.44,49.13,0,108.88,0h281.74
	c59.75,0,108.2,48.44,108.2,108.2v281.74C498.82,449.69,450.38,498.13,390.62,498.13z"/>
<polygon class="st1" points="173.62,396.98 118.63,498.13 385.77,498.13 325.89,396.98 253.54,385.78 "/>
<path class="st2" d="M250.29,415.61c-91.53,0-166-74.47-166-166c0-91.53,74.47-166,166-166s166,74.47,166,166
	C416.29,341.14,341.83,415.61,250.29,415.61z M250.29,142.61c-59,0-107,48-107,107s48,107,107,107c59,0,107-48,107-107
	S309.29,142.61,250.29,142.61z"/>
<path class="st3" d="M250.8,415.61c-0.43,0-0.85,0-1.28,0c-38.62-0.32-68.33-14.3-76.51-18.58l27.33-52.29
	c3.72,1.94,23.6,11.66,49.66,11.87c0.28,0,0.55,0,0.83,0c21.11,0,37.93-6.44,48.37-11.89l27.28,52.31
	C303.15,409.2,277.01,415.61,250.8,415.61z"/>
</svg>
